<svg width="26" height="32" viewBox="0 0 26 32" fill="none" xmlns="http://www.w3.org/2000/svg">
<path d="M8 24.3333H18M8 19.3333H18M24.6667 11H17.3333C16.4 11 15.9333 11 15.5767 10.8183C15.2631 10.6585 15.0081 10.4036 14.8483 10.09C14.6667 9.73333 14.6667 9.26667 14.6667 8.33333V1M24.6667 25.6667V12.09C24.6667 11.3167 24.6667 10.9317 24.5833 10.565C24.5095 10.2409 24.3876 9.92969 24.2217 9.64167C24.035 9.31667 23.7717 9.03333 23.2467 8.46667L17.9167 2.71C17.3333 2.08 17.0417 1.765 16.695 1.53833C16.3869 1.33858 16.0479 1.19105 15.6917 1.10167C15.2917 1 14.8617 1 14.0033 1H6.66667C4.8 1 3.86667 1 3.15334 1.36333C2.52616 1.68291 2.01624 2.19282 1.69667 2.82C1.33334 3.53333 1.33334 4.46667 1.33334 6.33333V25.6667C1.33334 27.5333 1.33334 28.4667 1.69667 29.18C2.01624 29.8072 2.52616 30.3171 3.15334 30.6367C3.86667 31 4.8 31 6.66667 31H19.3333C21.2 31 22.1333 31 22.8467 30.6367C23.4733 30.3167 23.9833 29.8067 24.3033 29.18C24.6667 28.4667 24.6667 27.5333 24.6667 25.6667Z" stroke="#0A65CC" stroke-width="2" stroke-linecap="round" stroke-linejoin="round"/>
</svg>
