<svg width="30" height="32" viewBox="0 0 30 32" fill="none" xmlns="http://www.w3.org/2000/svg">
<path d="M4.99999 14.3333V6.33333C4.99999 4.46667 4.99999 3.53333 5.36332 2.82C5.6829 2.19282 6.19281 1.68291 6.81999 1.36333C7.53332 1 8.46666 1 10.3333 1H17.7917C18.6067 1 19.015 1 19.3983 1.09167C19.7384 1.17362 20.0635 1.30861 20.3617 1.49167C20.6983 1.69667 20.9867 1.985 21.5617 2.56167L26.7717 7.77167C27.3483 8.34833 27.635 8.63667 27.8417 8.97167C28.025 9.27167 28.1583 9.595 28.2417 9.93667C28.3333 10.32 28.3333 10.7267 28.3333 11.5417V25.6667C28.3333 27.5333 28.3333 28.4667 27.97 29.18C27.6503 29.8071 27.1404 30.317 26.5133 30.6367C25.8 31 24.8667 31 23 31H16.6667M9.99999 19.3333L13.3333 22.6667M28.3333 11H23.6667C21.8 11 20.8667 11 20.1533 10.6367C19.5261 10.3171 19.0162 9.80718 18.6967 9.18C18.3333 8.46667 18.3333 7.53333 18.3333 5.66667V1M1.66666 31V26.8333L14.1667 14.3333L18.3333 18.5L5.83332 31H1.66666Z" stroke="#0A65CC" stroke-width="2" stroke-linecap="round" stroke-linejoin="round"/>
</svg>
